<mxfile host="app.diagrams.net" agent="Mozilla/5.0 (Windows NT 10.0; Win64; x64) AppleWebKit/537.36 (KHTML, like Gecko) Chrome/135.0.0.0 Safari/537.36" version="26.2.12">
  <diagram name="Page-1" id="tpigDDPErss5bawbf0nz">
    <mxGraphModel dx="1863" dy="1695" grid="1" gridSize="10" guides="1" tooltips="1" connect="1" arrows="1" fold="1" page="1" pageScale="1" pageWidth="850" pageHeight="1100" math="0" shadow="0">
      <root>
        <mxCell id="0" />
        <mxCell id="1" parent="0" />
        <mxCell id="s-_OTzcvdS2PQ7Hh8csy-1" value="Nhân viên bán hang" style="shape=umlActor;verticalLabelPosition=bottom;verticalAlign=top;html=1;outlineConnect=0;fillColor=#60a917;fontColor=#ffffff;strokeColor=#2D7600;" parent="1" vertex="1">
          <mxGeometry x="-760" y="120" width="60" height="90" as="geometry" />
        </mxCell>
        <mxCell id="s-_OTzcvdS2PQ7Hh8csy-5" value="" style="endArrow=none;html=1;rounded=0;entryX=0;entryY=0.5;entryDx=0;entryDy=0;" parent="1" source="s-_OTzcvdS2PQ7Hh8csy-1" target="s-_OTzcvdS2PQ7Hh8csy-4" edge="1">
          <mxGeometry width="50" height="50" relative="1" as="geometry">
            <mxPoint x="210" y="260" as="sourcePoint" />
            <mxPoint x="260" y="210" as="targetPoint" />
          </mxGeometry>
        </mxCell>
        <mxCell id="s-_OTzcvdS2PQ7Hh8csy-8" value="" style="endArrow=none;html=1;rounded=0;entryX=0;entryY=0.5;entryDx=0;entryDy=0;" parent="1" source="s-_OTzcvdS2PQ7Hh8csy-1" target="s-_OTzcvdS2PQ7Hh8csy-7" edge="1">
          <mxGeometry width="50" height="50" relative="1" as="geometry">
            <mxPoint x="-110" y="118" as="sourcePoint" />
            <mxPoint x="240" y="130" as="targetPoint" />
          </mxGeometry>
        </mxCell>
        <mxCell id="s-_OTzcvdS2PQ7Hh8csy-10" value="" style="endArrow=none;html=1;rounded=0;entryX=0.079;entryY=0.29;entryDx=0;entryDy=0;entryPerimeter=0;" parent="1" source="s-_OTzcvdS2PQ7Hh8csy-1" target="s-_OTzcvdS2PQ7Hh8csy-9" edge="1">
          <mxGeometry width="50" height="50" relative="1" as="geometry">
            <mxPoint x="-90" y="233.35000000000002" as="sourcePoint" />
            <mxPoint x="72.71544663164957" y="210.00387070067643" as="targetPoint" />
          </mxGeometry>
        </mxCell>
        <mxCell id="s-_OTzcvdS2PQ7Hh8csy-12" value="" style="endArrow=none;html=1;rounded=0;entryX=0;entryY=0.5;entryDx=0;entryDy=0;" parent="1" source="s-_OTzcvdS2PQ7Hh8csy-1" target="s-_OTzcvdS2PQ7Hh8csy-11" edge="1">
          <mxGeometry width="50" height="50" relative="1" as="geometry">
            <mxPoint x="-80" y="198" as="sourcePoint" />
            <mxPoint x="160" y="195" as="targetPoint" />
          </mxGeometry>
        </mxCell>
        <mxCell id="s-_OTzcvdS2PQ7Hh8csy-14" value="" style="swimlane;startSize=0;" parent="1" vertex="1">
          <mxGeometry x="-530" y="-220" width="970" height="1210" as="geometry" />
        </mxCell>
        <mxCell id="s-_OTzcvdS2PQ7Hh8csy-19" value="Xem báo cáo, thống kê" style="ellipse;whiteSpace=wrap;html=1;fillColor=#dae8fc;strokeColor=#6c8ebf;" parent="s-_OTzcvdS2PQ7Hh8csy-14" vertex="1">
          <mxGeometry x="350" y="735" width="140" height="70" as="geometry" />
        </mxCell>
        <mxCell id="s-_OTzcvdS2PQ7Hh8csy-4" value="Đăng nhập" style="ellipse;whiteSpace=wrap;html=1;fillColor=#dae8fc;strokeColor=#6c8ebf;" parent="s-_OTzcvdS2PQ7Hh8csy-14" vertex="1">
          <mxGeometry x="70" y="60" width="140" height="70" as="geometry" />
        </mxCell>
        <mxCell id="s-_OTzcvdS2PQ7Hh8csy-11" value="Cập nhật tài khoản" style="ellipse;whiteSpace=wrap;html=1;fillColor=#dae8fc;strokeColor=#6c8ebf;" parent="s-_OTzcvdS2PQ7Hh8csy-14" vertex="1">
          <mxGeometry x="210" y="90" width="140" height="70" as="geometry" />
        </mxCell>
        <mxCell id="s-_OTzcvdS2PQ7Hh8csy-9" value="Tạo đơn hàng" style="ellipse;whiteSpace=wrap;html=1;fillColor=#dae8fc;strokeColor=#6c8ebf;" parent="s-_OTzcvdS2PQ7Hh8csy-14" vertex="1">
          <mxGeometry x="380" y="420" width="140" height="70" as="geometry" />
        </mxCell>
        <mxCell id="s-_OTzcvdS2PQ7Hh8csy-7" value="Tìm kiếm&lt;span style=&quot;background-color: transparent; color: light-dark(rgb(0, 0, 0), rgb(255, 255, 255));&quot;&gt;&amp;nbsp;và xem sản phẩm&lt;/span&gt;" style="ellipse;whiteSpace=wrap;html=1;fillColor=#dae8fc;strokeColor=#6c8ebf;" parent="s-_OTzcvdS2PQ7Hh8csy-14" vertex="1">
          <mxGeometry x="290" y="170" width="140" height="70" as="geometry" />
        </mxCell>
        <mxCell id="s-_OTzcvdS2PQ7Hh8csy-36" value="Xem thông tin khách hàng" style="ellipse;html=1;labelBackgroundColor=none;whiteSpace=wrap;fillColor=#dae8fc;strokeColor=#6c8ebf;" parent="s-_OTzcvdS2PQ7Hh8csy-14" vertex="1">
          <mxGeometry x="410" y="610" width="140" height="70" as="geometry" />
        </mxCell>
        <mxCell id="s-_OTzcvdS2PQ7Hh8csy-39" value="Tạo khách hàng mới" style="ellipse;whiteSpace=wrap;html=1;fillColor=#b0e3e6;strokeColor=#0e8088;" parent="s-_OTzcvdS2PQ7Hh8csy-14" vertex="1">
          <mxGeometry x="590" y="530" width="140" height="70" as="geometry" />
        </mxCell>
        <mxCell id="s-_OTzcvdS2PQ7Hh8csy-29" value="Quản lý tài khoản" style="ellipse;whiteSpace=wrap;html=1;fillColor=#dae8fc;strokeColor=#6c8ebf;" parent="s-_OTzcvdS2PQ7Hh8csy-14" vertex="1">
          <mxGeometry x="340" y="837" width="140" height="70" as="geometry" />
        </mxCell>
        <mxCell id="s-_OTzcvdS2PQ7Hh8csy-69" style="edgeStyle=orthogonalEdgeStyle;rounded=0;orthogonalLoop=1;jettySize=auto;html=1;exitX=0.5;exitY=1;exitDx=0;exitDy=0;fillColor=#dae8fc;strokeColor=#6c8ebf;" parent="s-_OTzcvdS2PQ7Hh8csy-14" source="s-_OTzcvdS2PQ7Hh8csy-29" target="s-_OTzcvdS2PQ7Hh8csy-29" edge="1">
          <mxGeometry relative="1" as="geometry" />
        </mxCell>
        <mxCell id="s-_OTzcvdS2PQ7Hh8csy-51" value="Quản lý chương trình khuyến mãi" style="ellipse;whiteSpace=wrap;html=1;fillColor=#dae8fc;strokeColor=#6c8ebf;" parent="s-_OTzcvdS2PQ7Hh8csy-14" vertex="1">
          <mxGeometry x="310" y="917" width="140" height="70" as="geometry" />
        </mxCell>
        <mxCell id="s-_OTzcvdS2PQ7Hh8csy-32" value="Quản lý sản phẩm danh mục" style="ellipse;whiteSpace=wrap;html=1;rotation=0;fillColor=#dae8fc;strokeColor=#6c8ebf;" parent="s-_OTzcvdS2PQ7Hh8csy-14" vertex="1">
          <mxGeometry x="240" y="1000" width="140" height="80" as="geometry" />
        </mxCell>
        <mxCell id="s-_OTzcvdS2PQ7Hh8csy-57" value="Quản lý nhà cung cấp" style="ellipse;whiteSpace=wrap;html=1;fillColor=#dae8fc;strokeColor=#6c8ebf;" parent="s-_OTzcvdS2PQ7Hh8csy-14" vertex="1">
          <mxGeometry x="130" y="1067" width="140" height="70" as="geometry" />
        </mxCell>
        <mxCell id="s-_OTzcvdS2PQ7Hh8csy-72" value="&amp;lt;&amp;lt;extend&lt;span style=&quot;background-color: light-dark(#ffffff, var(--ge-dark-color, #121212)); color: light-dark(rgb(0, 0, 0), rgb(255, 255, 255));&quot;&gt;&amp;gt;&amp;gt;&lt;/span&gt;" style="endArrow=open;endSize=12;dashed=1;html=1;rounded=0;entryX=0.664;entryY=0.954;entryDx=0;entryDy=0;fillColor=#dae8fc;strokeColor=#6c8ebf;entryPerimeter=0;" parent="s-_OTzcvdS2PQ7Hh8csy-14" source="s-_OTzcvdS2PQ7Hh8csy-39" target="s-_OTzcvdS2PQ7Hh8csy-9" edge="1">
          <mxGeometry width="160" relative="1" as="geometry">
            <mxPoint x="220" y="580" as="sourcePoint" />
            <mxPoint x="380" y="580" as="targetPoint" />
          </mxGeometry>
        </mxCell>
        <mxCell id="s-_OTzcvdS2PQ7Hh8csy-77" value="&amp;lt;&amp;lt;include&lt;span style=&quot;background-color: light-dark(#ffffff, var(--ge-dark-color, #121212)); color: light-dark(rgb(0, 0, 0), rgb(255, 255, 255));&quot;&gt;&amp;gt;&amp;gt;&lt;/span&gt;" style="endArrow=open;endSize=12;dashed=1;html=1;rounded=0;fillColor=#dae8fc;strokeColor=#6c8ebf;" parent="s-_OTzcvdS2PQ7Hh8csy-14" source="s-_OTzcvdS2PQ7Hh8csy-36" target="s-_OTzcvdS2PQ7Hh8csy-9" edge="1">
          <mxGeometry width="160" relative="1" as="geometry">
            <mxPoint x="462" y="317" as="sourcePoint" />
            <mxPoint x="360" y="305" as="targetPoint" />
          </mxGeometry>
        </mxCell>
        <mxCell id="7AT4DTsNBzzMsyRU0dYs-2" value="Cấu hình hệ thống" style="ellipse;whiteSpace=wrap;html=1;fillColor=#dae8fc;strokeColor=#6c8ebf;" parent="s-_OTzcvdS2PQ7Hh8csy-14" vertex="1">
          <mxGeometry x="370" y="270" width="140" height="70" as="geometry" />
        </mxCell>
        <mxCell id="7AT4DTsNBzzMsyRU0dYs-8" value="Áp dụng khuyến mãi" style="ellipse;whiteSpace=wrap;html=1;fillColor=#b0e3e6;strokeColor=#0e8088;" parent="s-_OTzcvdS2PQ7Hh8csy-14" vertex="1">
          <mxGeometry x="640" y="450" width="140" height="70" as="geometry" />
        </mxCell>
        <mxCell id="7AT4DTsNBzzMsyRU0dYs-9" value="&amp;lt;&amp;lt;extend&lt;span style=&quot;background-color: light-dark(#ffffff, var(--ge-dark-color, #121212)); color: light-dark(rgb(0, 0, 0), rgb(255, 255, 255));&quot;&gt;&amp;gt;&amp;gt;&lt;/span&gt;" style="endArrow=open;endSize=12;dashed=1;html=1;rounded=0;fillColor=#dae8fc;strokeColor=#6c8ebf;" parent="s-_OTzcvdS2PQ7Hh8csy-14" source="7AT4DTsNBzzMsyRU0dYs-8" target="s-_OTzcvdS2PQ7Hh8csy-9" edge="1">
          <mxGeometry width="160" relative="1" as="geometry">
            <mxPoint x="210" y="670" as="sourcePoint" />
            <mxPoint x="510" y="545" as="targetPoint" />
          </mxGeometry>
        </mxCell>
        <mxCell id="7AT4DTsNBzzMsyRU0dYs-10" value="Thêm sản phẩm vào đơn" style="ellipse;whiteSpace=wrap;html=1;fillColor=#bac8d3;strokeColor=#23445d;" parent="s-_OTzcvdS2PQ7Hh8csy-14" vertex="1">
          <mxGeometry x="540" y="300" width="140" height="70" as="geometry" />
        </mxCell>
        <mxCell id="7AT4DTsNBzzMsyRU0dYs-11" value="&amp;lt;&amp;lt;include&lt;span style=&quot;color: light-dark(rgb(0, 0, 0), rgb(255, 255, 255)); background-color: light-dark(#ffffff, var(--ge-dark-color, #121212));&quot;&gt;&amp;gt;&amp;gt;&lt;/span&gt;" style="endArrow=open;endSize=12;dashed=1;html=1;rounded=0;entryX=0.071;entryY=0.798;entryDx=0;entryDy=0;fillColor=#dae8fc;strokeColor=#6c8ebf;entryPerimeter=0;" parent="s-_OTzcvdS2PQ7Hh8csy-14" source="s-_OTzcvdS2PQ7Hh8csy-9" target="7AT4DTsNBzzMsyRU0dYs-10" edge="1">
          <mxGeometry width="160" relative="1" as="geometry">
            <mxPoint x="180" y="545" as="sourcePoint" />
            <mxPoint x="480" y="420" as="targetPoint" />
          </mxGeometry>
        </mxCell>
        <mxCell id="aNTe_hOQqdcUi8JVA9_l-3" value="Tìm theo giá" style="ellipse;whiteSpace=wrap;html=1;fillColor=#b0e3e6;strokeColor=#0e8088;" parent="s-_OTzcvdS2PQ7Hh8csy-14" vertex="1">
          <mxGeometry x="480" y="90" width="140" height="70" as="geometry" />
        </mxCell>
        <mxCell id="aNTe_hOQqdcUi8JVA9_l-4" value="&amp;lt;&amp;lt;extend&lt;span style=&quot;background-color: light-dark(#ffffff, var(--ge-dark-color, #121212)); color: light-dark(rgb(0, 0, 0), rgb(255, 255, 255));&quot;&gt;&amp;gt;&amp;gt;&lt;/span&gt;" style="endArrow=open;endSize=12;dashed=1;html=1;rounded=0;fillColor=#dae8fc;strokeColor=#6c8ebf;entryX=0.92;entryY=0.304;entryDx=0;entryDy=0;entryPerimeter=0;" parent="s-_OTzcvdS2PQ7Hh8csy-14" source="aNTe_hOQqdcUi8JVA9_l-3" target="s-_OTzcvdS2PQ7Hh8csy-7" edge="1">
          <mxGeometry width="160" relative="1" as="geometry">
            <mxPoint x="485" y="620" as="sourcePoint" />
            <mxPoint x="465" y="500" as="targetPoint" />
          </mxGeometry>
        </mxCell>
        <mxCell id="aNTe_hOQqdcUi8JVA9_l-5" value="Tìm theo loại" style="ellipse;whiteSpace=wrap;html=1;fillColor=#b0e3e6;strokeColor=#0e8088;" parent="s-_OTzcvdS2PQ7Hh8csy-14" vertex="1">
          <mxGeometry x="540" y="180" width="140" height="70" as="geometry" />
        </mxCell>
        <mxCell id="aNTe_hOQqdcUi8JVA9_l-6" value="&amp;lt;&amp;lt;extend&lt;span style=&quot;background-color: light-dark(#ffffff, var(--ge-dark-color, #121212)); color: light-dark(rgb(0, 0, 0), rgb(255, 255, 255));&quot;&gt;&amp;gt;&amp;gt;&lt;/span&gt;" style="endArrow=open;endSize=12;dashed=1;html=1;rounded=0;fillColor=#dae8fc;strokeColor=#6c8ebf;entryX=0.993;entryY=0.636;entryDx=0;entryDy=0;entryPerimeter=0;" parent="s-_OTzcvdS2PQ7Hh8csy-14" source="aNTe_hOQqdcUi8JVA9_l-5" target="s-_OTzcvdS2PQ7Hh8csy-7" edge="1">
          <mxGeometry width="160" relative="1" as="geometry">
            <mxPoint x="505" y="710" as="sourcePoint" />
            <mxPoint x="439" y="281" as="targetPoint" />
          </mxGeometry>
        </mxCell>
        <mxCell id="aNTe_hOQqdcUi8JVA9_l-7" value="In hóa đơn" style="ellipse;whiteSpace=wrap;html=1;fillColor=#b0e3e6;strokeColor=#0e8088;" parent="s-_OTzcvdS2PQ7Hh8csy-14" vertex="1">
          <mxGeometry x="560" y="610" width="140" height="70" as="geometry" />
        </mxCell>
        <mxCell id="aNTe_hOQqdcUi8JVA9_l-8" value="&amp;lt;&amp;lt;extend&lt;span style=&quot;background-color: light-dark(#ffffff, var(--ge-dark-color, #121212)); color: light-dark(rgb(0, 0, 0), rgb(255, 255, 255));&quot;&gt;&amp;gt;&amp;gt;&lt;/span&gt;" style="endArrow=open;endSize=12;dashed=1;html=1;rounded=0;entryX=0.627;entryY=0.996;entryDx=0;entryDy=0;fillColor=#dae8fc;strokeColor=#6c8ebf;entryPerimeter=0;" parent="s-_OTzcvdS2PQ7Hh8csy-14" source="aNTe_hOQqdcUi8JVA9_l-7" target="s-_OTzcvdS2PQ7Hh8csy-9" edge="1">
          <mxGeometry width="160" relative="1" as="geometry">
            <mxPoint x="228.5" y="653" as="sourcePoint" />
            <mxPoint x="481.5" y="560" as="targetPoint" />
          </mxGeometry>
        </mxCell>
        <mxCell id="aNTe_hOQqdcUi8JVA9_l-9" value="Sửa sản phẩm trong đơn" style="ellipse;whiteSpace=wrap;html=1;fillColor=#b0e3e6;strokeColor=#0e8088;" parent="s-_OTzcvdS2PQ7Hh8csy-14" vertex="1">
          <mxGeometry x="660" y="370" width="140" height="70" as="geometry" />
        </mxCell>
        <mxCell id="aNTe_hOQqdcUi8JVA9_l-10" value="&amp;lt;&amp;lt;extend&lt;span style=&quot;background-color: light-dark(#ffffff, var(--ge-dark-color, #121212)); color: light-dark(rgb(0, 0, 0), rgb(255, 255, 255));&quot;&gt;&amp;gt;&amp;gt;&lt;/span&gt;" style="endArrow=open;endSize=12;dashed=1;html=1;rounded=0;fillColor=#dae8fc;strokeColor=#6c8ebf;" parent="s-_OTzcvdS2PQ7Hh8csy-14" source="aNTe_hOQqdcUi8JVA9_l-9" target="s-_OTzcvdS2PQ7Hh8csy-9" edge="1">
          <mxGeometry width="160" relative="1" as="geometry">
            <mxPoint x="328.5" y="500" as="sourcePoint" />
            <mxPoint x="581.5" y="407" as="targetPoint" />
          </mxGeometry>
        </mxCell>
        <mxCell id="aNTe_hOQqdcUi8JVA9_l-12" value="Xem theo ngày, tháng, năm" style="ellipse;whiteSpace=wrap;html=1;fillColor=#b0e3e6;strokeColor=#0e8088;" parent="s-_OTzcvdS2PQ7Hh8csy-14" vertex="1">
          <mxGeometry x="595.72" y="754.88" width="140" height="70" as="geometry" />
        </mxCell>
        <mxCell id="aNTe_hOQqdcUi8JVA9_l-13" value="&amp;lt;&amp;lt;extend&lt;span style=&quot;background-color: light-dark(#ffffff, var(--ge-dark-color, #121212)); color: light-dark(rgb(0, 0, 0), rgb(255, 255, 255));&quot;&gt;&amp;gt;&amp;gt;&lt;/span&gt;" style="endArrow=open;endSize=12;dashed=1;html=1;rounded=0;entryX=0.985;entryY=0.38;entryDx=0;entryDy=0;fillColor=#dae8fc;strokeColor=#6c8ebf;entryPerimeter=0;" parent="s-_OTzcvdS2PQ7Hh8csy-14" source="aNTe_hOQqdcUi8JVA9_l-12" target="s-_OTzcvdS2PQ7Hh8csy-19" edge="1">
          <mxGeometry width="160" relative="1" as="geometry">
            <mxPoint x="264.22" y="797.88" as="sourcePoint" />
            <mxPoint x="484.2800000000002" y="729.9999999999999" as="targetPoint" />
          </mxGeometry>
        </mxCell>
        <mxCell id="aNTe_hOQqdcUi8JVA9_l-14" value="Xem theo danh mục" style="ellipse;whiteSpace=wrap;html=1;fillColor=#b0e3e6;strokeColor=#0e8088;" parent="s-_OTzcvdS2PQ7Hh8csy-14" vertex="1">
          <mxGeometry x="597.72" y="837" width="140" height="70" as="geometry" />
        </mxCell>
        <mxCell id="aNTe_hOQqdcUi8JVA9_l-15" value="&amp;lt;&amp;lt;extend&lt;span style=&quot;background-color: light-dark(#ffffff, var(--ge-dark-color, #121212)); color: light-dark(rgb(0, 0, 0), rgb(255, 255, 255));&quot;&gt;&amp;gt;&amp;gt;&lt;/span&gt;" style="endArrow=open;endSize=12;dashed=1;html=1;rounded=0;entryX=0.965;entryY=0.729;entryDx=0;entryDy=0;fillColor=#dae8fc;strokeColor=#6c8ebf;entryPerimeter=0;" parent="s-_OTzcvdS2PQ7Hh8csy-14" source="aNTe_hOQqdcUi8JVA9_l-14" target="s-_OTzcvdS2PQ7Hh8csy-19" edge="1">
          <mxGeometry width="160" relative="1" as="geometry">
            <mxPoint x="266.22" y="880" as="sourcePoint" />
            <mxPoint x="490" y="844.12" as="targetPoint" />
          </mxGeometry>
        </mxCell>
        <mxCell id="P8ax9wti7ibnwW6SrjBH-2" value="" style="edgeStyle=orthogonalEdgeStyle;rounded=0;orthogonalLoop=1;jettySize=auto;html=1;" edge="1" parent="1" source="s-_OTzcvdS2PQ7Hh8csy-23" target="P8ax9wti7ibnwW6SrjBH-1">
          <mxGeometry relative="1" as="geometry" />
        </mxCell>
        <mxCell id="s-_OTzcvdS2PQ7Hh8csy-23" value="Quản trị viên" style="shape=umlActor;verticalLabelPosition=bottom;verticalAlign=top;html=1;outlineConnect=0;fillColor=#fa6800;strokeColor=#C73500;fontColor=#000000;" parent="1" vertex="1">
          <mxGeometry x="-760" y="570" width="60" height="90" as="geometry" />
        </mxCell>
        <mxCell id="s-_OTzcvdS2PQ7Hh8csy-26" value="" style="endArrow=none;html=1;rounded=0;exitX=0;exitY=0.5;exitDx=0;exitDy=0;" parent="1" source="s-_OTzcvdS2PQ7Hh8csy-4" target="s-_OTzcvdS2PQ7Hh8csy-23" edge="1">
          <mxGeometry width="50" height="50" relative="1" as="geometry">
            <mxPoint x="-80" y="202" as="sourcePoint" />
            <mxPoint x="520" y="180" as="targetPoint" />
          </mxGeometry>
        </mxCell>
        <mxCell id="s-_OTzcvdS2PQ7Hh8csy-28" value="" style="endArrow=none;html=1;rounded=0;exitX=0;exitY=0.5;exitDx=0;exitDy=0;" parent="1" source="s-_OTzcvdS2PQ7Hh8csy-11" target="s-_OTzcvdS2PQ7Hh8csy-23" edge="1">
          <mxGeometry width="50" height="50" relative="1" as="geometry">
            <mxPoint x="313" y="96" as="sourcePoint" />
            <mxPoint x="510" y="190" as="targetPoint" />
          </mxGeometry>
        </mxCell>
        <mxCell id="s-_OTzcvdS2PQ7Hh8csy-30" value="" style="endArrow=none;html=1;rounded=0;exitX=0.015;exitY=0.305;exitDx=0;exitDy=0;exitPerimeter=0;" parent="1" source="s-_OTzcvdS2PQ7Hh8csy-29" target="s-_OTzcvdS2PQ7Hh8csy-23" edge="1">
          <mxGeometry width="50" height="50" relative="1" as="geometry">
            <mxPoint x="180" y="235" as="sourcePoint" />
            <mxPoint x="520" y="180" as="targetPoint" />
          </mxGeometry>
        </mxCell>
        <mxCell id="s-_OTzcvdS2PQ7Hh8csy-31" value="" style="endArrow=none;html=1;rounded=0;exitX=0;exitY=0.5;exitDx=0;exitDy=0;" parent="1" source="s-_OTzcvdS2PQ7Hh8csy-7" target="s-_OTzcvdS2PQ7Hh8csy-23" edge="1">
          <mxGeometry width="50" height="50" relative="1" as="geometry">
            <mxPoint x="309" y="275" as="sourcePoint" />
            <mxPoint x="520" y="180" as="targetPoint" />
          </mxGeometry>
        </mxCell>
        <mxCell id="s-_OTzcvdS2PQ7Hh8csy-33" value="" style="endArrow=none;html=1;rounded=0;" parent="1" source="s-_OTzcvdS2PQ7Hh8csy-32" target="s-_OTzcvdS2PQ7Hh8csy-23" edge="1">
          <mxGeometry width="50" height="50" relative="1" as="geometry">
            <mxPoint x="310" y="460" as="sourcePoint" />
            <mxPoint x="520" y="180" as="targetPoint" />
          </mxGeometry>
        </mxCell>
        <mxCell id="s-_OTzcvdS2PQ7Hh8csy-35" value="" style="endArrow=none;html=1;rounded=0;exitX=0;exitY=0.5;exitDx=0;exitDy=0;" parent="1" source="s-_OTzcvdS2PQ7Hh8csy-19" target="s-_OTzcvdS2PQ7Hh8csy-23" edge="1">
          <mxGeometry width="50" height="50" relative="1" as="geometry">
            <mxPoint x="304" y="442" as="sourcePoint" />
            <mxPoint x="520" y="180" as="targetPoint" />
          </mxGeometry>
        </mxCell>
        <mxCell id="s-_OTzcvdS2PQ7Hh8csy-42" value="" style="endArrow=none;html=1;rounded=0;exitX=0;exitY=0.5;exitDx=0;exitDy=0;" parent="1" source="s-_OTzcvdS2PQ7Hh8csy-36" target="s-_OTzcvdS2PQ7Hh8csy-1" edge="1">
          <mxGeometry width="50" height="50" relative="1" as="geometry">
            <mxPoint x="315" y="715" as="sourcePoint" />
            <mxPoint x="570" y="351" as="targetPoint" />
          </mxGeometry>
        </mxCell>
        <mxCell id="s-_OTzcvdS2PQ7Hh8csy-52" value="" style="endArrow=none;html=1;rounded=0;" parent="1" source="s-_OTzcvdS2PQ7Hh8csy-51" target="s-_OTzcvdS2PQ7Hh8csy-23" edge="1">
          <mxGeometry width="50" height="50" relative="1" as="geometry">
            <mxPoint x="315" y="825" as="sourcePoint" />
            <mxPoint x="570" y="357" as="targetPoint" />
          </mxGeometry>
        </mxCell>
        <mxCell id="s-_OTzcvdS2PQ7Hh8csy-58" value="" style="endArrow=none;html=1;rounded=0;" parent="1" source="s-_OTzcvdS2PQ7Hh8csy-57" target="s-_OTzcvdS2PQ7Hh8csy-23" edge="1">
          <mxGeometry width="50" height="50" relative="1" as="geometry">
            <mxPoint x="309" y="712" as="sourcePoint" />
            <mxPoint x="600" y="590" as="targetPoint" />
          </mxGeometry>
        </mxCell>
        <mxCell id="7AT4DTsNBzzMsyRU0dYs-1" value="" style="endArrow=none;html=1;rounded=0;entryX=0;entryY=0.5;entryDx=0;entryDy=0;" parent="1" source="s-_OTzcvdS2PQ7Hh8csy-1" target="7AT4DTsNBzzMsyRU0dYs-2" edge="1">
          <mxGeometry width="50" height="50" relative="1" as="geometry">
            <mxPoint x="-500" y="200" as="sourcePoint" />
            <mxPoint x="470" y="263.5" as="targetPoint" />
          </mxGeometry>
        </mxCell>
        <mxCell id="7AT4DTsNBzzMsyRU0dYs-3" value="" style="endArrow=none;html=1;rounded=0;exitX=0;exitY=0.5;exitDx=0;exitDy=0;" parent="1" source="7AT4DTsNBzzMsyRU0dYs-2" target="s-_OTzcvdS2PQ7Hh8csy-23" edge="1">
          <mxGeometry width="50" height="50" relative="1" as="geometry">
            <mxPoint x="623" y="164.5" as="sourcePoint" />
            <mxPoint x="-160" y="451.5" as="targetPoint" />
          </mxGeometry>
        </mxCell>
        <mxCell id="aNTe_hOQqdcUi8JVA9_l-11" value="" style="endArrow=none;html=1;rounded=0;" parent="1" source="s-_OTzcvdS2PQ7Hh8csy-19" target="s-_OTzcvdS2PQ7Hh8csy-1" edge="1">
          <mxGeometry width="50" height="50" relative="1" as="geometry">
            <mxPoint x="-110" y="435" as="sourcePoint" />
            <mxPoint x="-690" y="188" as="targetPoint" />
          </mxGeometry>
        </mxCell>
        <mxCell id="P8ax9wti7ibnwW6SrjBH-4" value="" style="edgeStyle=orthogonalEdgeStyle;rounded=0;orthogonalLoop=1;jettySize=auto;html=1;" edge="1" parent="1" source="P8ax9wti7ibnwW6SrjBH-1" target="P8ax9wti7ibnwW6SrjBH-3">
          <mxGeometry relative="1" as="geometry" />
        </mxCell>
        <mxCell id="P8ax9wti7ibnwW6SrjBH-1" value="Quản trị viên" style="shape=umlActor;verticalLabelPosition=bottom;verticalAlign=top;html=1;outlineConnect=0;fillColor=#fa6800;strokeColor=#C73500;fontColor=#000000;" vertex="1" parent="1">
          <mxGeometry x="-760" y="740" width="60" height="90" as="geometry" />
        </mxCell>
        <mxCell id="P8ax9wti7ibnwW6SrjBH-3" value="Quản trị viên" style="shape=umlActor;verticalLabelPosition=bottom;verticalAlign=top;html=1;outlineConnect=0;fillColor=#fa6800;strokeColor=#C73500;fontColor=#000000;" vertex="1" parent="1">
          <mxGeometry x="-760" y="570" width="60" height="90" as="geometry" />
        </mxCell>
      </root>
    </mxGraphModel>
  </diagram>
</mxfile>
